<?xml version="1.0" encoding="utf-8"?>
<!-- Generator: Adobe Illustrator 27.5.0, SVG Export Plug-In . SVG Version: 6.00 Build 0)  -->
<svg version="1.1" xmlns="http://www.w3.org/2000/svg" xmlns:xlink="http://www.w3.org/1999/xlink" x="0px" y="0px"
	 viewBox="0 0 500 500" style="enable-background:new 0 0 500 500;" xml:space="preserve">
<g id="BACKGROUND">
	<rect style="fill:#FFFFFF;" width="500" height="500"/>
</g>
<g id="OBJECTS">
	<g>
		<g>
			<path style="fill:#D2F0FF;" d="M432.151,230.2c6.281-58.046-42.251-110.905-108.4-118.063
				c-21.574-2.334-42.354,0.483-60.784,7.352c-15.837,5.903-32.798,8.307-49.572,6.228c-0.797-0.099-1.596-0.192-2.398-0.278
				c-74.089-8.017-139.853,38.188-146.888,103.202c-7.035,65.014,47.323,124.217,121.412,132.234
				c45.579,4.932,88.001-10.663,115.544-38.528C367.189,329.474,425.872,288.229,432.151,230.2z"/>
			<g>
				<g>
					<rect x="195.332" y="177.269" style="fill:#73ADF0;" width="241.171" height="178.888"/>
					<rect x="186.293" y="166.723" style="fill:#FFFFFF;" width="241.17" height="178.888"/>
					<rect x="186.293" y="166.723" style="fill:#4191E6;" width="241.17" height="25.275"/>
					<g>
						<rect x="208.708" y="210.941" style="fill:#AFD5FF;" width="29.524" height="25.299"/>
						<rect x="262.267" y="204.097" style="fill:#73ADF0;" width="45.668" height="30.978"/>
						<rect x="327.301" y="208.345" style="fill:#BE5AB9;" width="29.524" height="25.299"/>
						<rect x="375.524" y="207.2" style="fill:#AFD5FF;" width="29.524" height="37.877"/>
						
							<rect x="234.059" y="241.958" transform="matrix(0.9815 0.1914 -0.1914 0.9815 53.9304 -42.3602)" style="fill:#73ADF0;" width="24.458" height="32.181"/>
						<rect x="252.269" y="249.637" style="fill:#AFD5FF;" width="21.706" height="21.706"/>
						<rect x="299.295" y="250.318" style="fill:#73ADF0;" width="24.424" height="29.524"/>
						<rect x="333.82" y="247.868" style="fill:#AFD5FF;" width="23.762" height="20.361"/>
						<rect x="380.209" y="264.655" style="fill:#FAC855;" width="24.617" height="25.299"/>
						<rect x="215.245" y="281.08" style="fill:#73ADF0;" width="62.086" height="32.462"/>
						<polygon style="fill:#D6EAFF;" points="316.321,307.849 294.092,307.849 294.092,289.818 314.344,287.331 						"/>
						<rect x="292.116" y="287.331" style="fill:#AFD5FF;" width="22.229" height="19.048"/>
						<rect x="292.116" y="287.331" style="fill:#73ADF0;" width="22.229" height="4.973"/>
						<rect x="333.82" y="281.08" style="fill:#73ADF0;" width="25.846" height="30.892"/>
						<rect x="220.94" y="287.685" style="fill:#AFD5FF;" width="9.431" height="7.158"/>
						<rect x="234.582" y="287.685" style="fill:#AFD5FF;" width="9.431" height="7.158"/>
						<rect x="248.224" y="287.685" style="fill:#AFD5FF;" width="9.431" height="7.158"/>
						<rect x="261.866" y="287.685" style="fill:#AFD5FF;" width="9.431" height="7.158"/>
						<rect x="220.94" y="298.599" style="fill:#AFD5FF;" width="9.431" height="7.158"/>
						<rect x="234.582" y="298.599" style="fill:#AFD5FF;" width="9.431" height="7.158"/>
						<rect x="248.224" y="298.599" style="fill:#AFD5FF;" width="9.431" height="7.158"/>
						<rect x="261.866" y="298.599" style="fill:#AFD5FF;" width="9.431" height="7.158"/>
						<path style="fill:#4F85C4;" d="M348.268,285.361c0,0.842-0.683,1.525-1.525,1.525c-0.842,0-1.525-0.683-1.525-1.525
							c0-0.842,0.683-1.525,1.525-1.525C347.585,283.836,348.268,284.518,348.268,285.361z"/>
						<rect x="337.687" y="291.264" style="fill:#FFFFFF;" width="13.339" height="3.579"/>
						<rect x="337.687" y="297.59" style="fill:#FFFFFF;" width="17.28" height="3.579"/>
						
							<rect x="351.026" y="288.519" transform="matrix(0.9844 -0.176 0.176 0.9844 -47.3753 68.2188)" style="fill:#AFD5FF;" width="19.686" height="25.299"/>
						<circle style="fill:#4F85C4;" cx="359.225" cy="292.908" r="1.644"/>
						<rect x="380.432" y="213.219" style="fill:#FFFFFF;" width="9.551" height="2.818"/>
						<rect x="380.432" y="219.586" style="fill:#FFFFFF;" width="19.781" height="2.818"/>
						<rect x="380.432" y="225.952" style="fill:#FFFFFF;" width="19.781" height="2.818"/>
						<rect x="380.432" y="232.318" style="fill:#FFFFFF;" width="19.781" height="2.818"/>
						<rect x="390.51" y="259.168" style="fill:#FFF5AA;" width="4.015" height="8.441"/>
						<path style="fill:#FFFFFF;" d="M318.994,273.774h-3.747c-0.585,0-0.877-0.707-0.464-1.12l3.747-3.747
							c0.413-0.413,1.12-0.121,1.12,0.464v3.747C319.65,273.48,319.356,273.774,318.994,273.774z"/>
						
							<line style="fill:none;stroke:#FFFFFF;stroke-width:2;stroke-linecap:round;stroke-miterlimit:10;" x1="317.679" y1="271.576" x2="305.856" y2="259.608"/>
						<rect x="309.797" y="247.552" style="fill:#AFD5FF;" width="3.107" height="5.381"/>
						<rect x="339.96" y="252.932" style="fill:#FFFFFF;" width="4.206" height="4.206"/>
						<rect x="347.236" y="252.932" style="fill:#FFFFFF;" width="4.206" height="4.206"/>
						<rect x="339.96" y="259.299" style="fill:#FFFFFF;" width="4.206" height="4.206"/>
						<rect x="347.236" y="259.299" style="fill:#FFFFFF;" width="4.206" height="4.206"/>
						
							<polyline style="fill:none;stroke:#FFFFFF;stroke-width:2;stroke-linecap:round;stroke-linejoin:round;stroke-miterlimit:10;" points="
							267.278,258.608 262.143,263.743 258.967,260.567 						"/>
						<rect x="220.721" y="206.986" style="fill:#FAC855;" width="20.276" height="16.605"/>
						<path style="fill:#FFAA50;" d="M232.372,210.64c0,0.836-0.677,1.513-1.513,1.513c-0.836,0-1.513-0.677-1.513-1.513
							c0-0.835,0.677-1.513,1.513-1.513C231.694,209.127,232.372,209.804,232.372,210.64z"/>
						<rect x="267.278" y="209.127" style="fill:#AFD5FF;" width="14.023" height="20.856"/>
						<rect x="285.1" y="209.127" style="fill:#AFD5FF;" width="18.13" height="3.026"/>
						<rect x="285.1" y="215.493" style="fill:#AFD5FF;" width="18.13" height="3.026"/>
						<rect x="285.1" y="221.859" style="fill:#AFD5FF;" width="8.934" height="3.026"/>
						<path style="fill:#FFBED7;" d="M342.063,213.235c-4.285,0-7.759,3.474-7.759,7.759c0,4.285,3.474,7.759,7.759,7.759
							s7.759-3.474,7.759-7.759h-7.759V213.235z"/>
						<path style="fill:none;stroke:#73ADF0;stroke-width:2;stroke-linecap:round;stroke-miterlimit:10;" d="M317.091,239.348
							c-2.966,2.966-7.774,2.966-10.74,0"/>
						<path style="fill:#73ADF0;" d="M315.559,237.352l3.285-0.316c0.351-0.034,0.645,0.261,0.611,0.611l-0.316,3.285
							c-0.045,0.472-0.619,0.678-0.954,0.342l-2.969-2.969C314.882,237.971,315.088,237.397,315.559,237.352z"/>
						<path style="fill:#73ADF0;" d="M290.9,255.516l2.547,2.1c0.272,0.224,0.272,0.641,0,0.865l-2.547,2.1
							c-0.365,0.301-0.917,0.041-0.917-0.432v-4.199C289.984,255.475,290.535,255.215,290.9,255.516z"/>
						
							<line style="fill:none;stroke:#73ADF0;stroke-width:2;stroke-linecap:round;stroke-miterlimit:10;" x1="291.817" y1="258.048" x2="280.732" y2="258.048"/>
						<path style="fill:#AFD5FF;" d="M282.566,263.872l-2.547,2.1c-0.272,0.224-0.272,0.641,0,0.865l2.547,2.1
							c0.366,0.301,0.917,0.041,0.917-0.432v-4.199C283.483,263.831,282.932,263.57,282.566,263.872z"/>
						
							<line style="fill:none;stroke:#AFD5FF;stroke-width:2;stroke-linecap:round;stroke-miterlimit:10;" x1="281.649" y1="266.404" x2="292.734" y2="266.404"/>
					</g>
					<rect x="208.708" y="320.134" style="fill:#AFD5FF;" width="196.341" height="13.404"/>
				</g>
				<g>
					<rect x="309.797" y="325.159" style="fill:#FFBED7;" width="16.179" height="16.18"/>
					<rect x="309.797" y="325.159" style="fill:#FFA0BE;" width="16.179" height="3.335"/>
				</g>
				<g>
					<rect x="333.973" y="321.814" style="fill:#FAC855;" width="16.179" height="16.18"/>
					<rect x="333.973" y="321.814" style="fill:#FFAA50;" width="16.179" height="3.335"/>
				</g>
				<g>
					<rect x="362.65" y="325.227" style="fill:#55C7A6;" width="12.874" height="12.874"/>
					<rect x="362.65" y="325.227" style="fill:#39AE96;" width="12.874" height="2.654"/>
				</g>
				<rect x="389.983" y="302.297" style="fill:#73ADF0;" width="28.876" height="29.367"/>
				<rect x="392.517" y="305.757" style="fill:#AFD5FF;" width="4.244" height="4.244"/>
				<rect x="392.517" y="311.982" style="fill:#AFD5FF;" width="4.244" height="4.244"/>
				<rect x="392.517" y="318.207" style="fill:#AFD5FF;" width="4.244" height="4.244"/>
				<rect x="392.517" y="324.432" style="fill:#AFD5FF;" width="4.244" height="4.244"/>
				
					<line style="fill:none;stroke:#FFFFFF;stroke-width:2;stroke-linecap:round;stroke-miterlimit:10;" x1="401.425" y1="307.879" x2="414.688" y2="307.879"/>
				
					<line style="fill:none;stroke:#FFFFFF;stroke-width:2;stroke-linecap:round;stroke-miterlimit:10;" x1="401.425" y1="314.104" x2="414.688" y2="314.104"/>
				
					<line style="fill:none;stroke:#FFFFFF;stroke-width:2;stroke-linecap:round;stroke-miterlimit:10;" x1="401.425" y1="320.329" x2="414.688" y2="320.329"/>
				
					<line style="fill:none;stroke:#FFFFFF;stroke-width:2;stroke-linecap:round;stroke-miterlimit:10;" x1="401.425" y1="326.554" x2="414.688" y2="326.554"/>
			</g>
			<g>
				<circle style="fill:#AFE6FF;" cx="113.164" cy="213.862" r="22.776"/>
				
					<ellipse transform="matrix(0.2275 -0.9738 0.9738 0.2275 -118.6322 273.6486)" style="fill:#FFFFFF;" cx="113.164" cy="211.598" rx="22.776" ry="22.776"/>
				
					<ellipse transform="matrix(0.9221 -0.3869 0.3869 0.9221 -73.0521 60.2595)" style="fill:#D2F0FF;" cx="113.164" cy="211.598" rx="17.867" ry="17.867"/>
				<g>
					<path style="fill:#AFE6FF;" d="M115.428,213.862h-8.923c-0.834,0-1.509-0.676-1.509-1.509c0-0.834,0.676-1.509,1.509-1.509
						h5.904v-11.829c0-0.834,0.676-1.509,1.509-1.509c0.834,0,1.509,0.676,1.509,1.509V213.862z"/>
				</g>
				<circle style="fill:#AFE6FF;" cx="113.889" cy="212.262" r="2.772"/>
				<circle style="fill:#FFFFFF;" cx="113.164" cy="211.598" r="2.772"/>
				<polyline style="fill:none;stroke:#FFFFFF;stroke-width:3.3194;stroke-linecap:round;stroke-miterlimit:10;" points="
					113.164,198.26 113.164,211.598 105.751,211.598 				"/>
			</g>
			<g>
				<rect id="XMLID_2783_" x="174.422" y="378.212" style="fill:#F9C388;" width="7.172" height="8.867"/>
				<rect id="XMLID_2782_" x="189.447" y="378.212" style="fill:#F9C388;" width="7.172" height="8.867"/>
				<rect id="XMLID_2781_" x="171.816" y="309.161" style="fill:#2D2E30;" width="11.693" height="70.733"/>
				<rect id="XMLID_2780_" x="188.184" y="309.161" style="fill:#2D2E30;" width="11.693" height="70.733"/>
				<rect id="XMLID_2779_" x="171.816" y="309.161" style="fill:#2D2E30;" width="28.061" height="13.795"/>
				<rect id="XMLID_2778_" x="171.816" y="309.161" style="fill:#1D1D1F;" width="28.061" height="4.362"/>
				<rect id="XMLID_2777_" x="170.382" y="378.212" style="fill:#797882;" width="13.127" height="3.706"/>
				<rect id="XMLID_2776_" x="188.184" y="378.212" style="fill:#797882;" width="13.127" height="3.706"/>
				<rect id="XMLID_2775_" x="170.137" y="383.105" style="fill:#774422;" width="6.239" height="4.428"/>
				
					<rect id="XMLID_2774_" x="194.711" y="383.105" transform="matrix(-1 -1.224647e-16 1.224647e-16 -1 395.6617 770.6378)" style="fill:#774422;" width="6.239" height="4.428"/>
				<rect id="XMLID_2773_" x="160.654" y="391.218" style="fill:#774422;" width="22.341" height="1.46"/>
				<rect id="XMLID_2772_" x="187.654" y="391.218" style="fill:#774422;" width="22.341" height="1.46"/>
				<path id="XMLID_2771_" style="fill:#8E552E;" d="M182.452,391.218h-20.38v-1.259c0-1.974,1.6-3.573,3.573-3.573h16.806V391.218z
					"/>
				<path id="XMLID_2770_" style="fill:#8E552E;" d="M188.635,391.218h20.38v-1.259c0-1.974-1.6-3.573-3.573-3.573h-16.806V391.218z
					"/>
				<path style="fill:#FFFFFF;" d="M166.931,309.829h37.148v-53.922c0-1.997-1.57-3.615-3.507-3.615h-30.134
					c-1.937,0-3.507,1.619-3.507,3.615V309.829z"/>
				<path style="fill:#DD9F6B;" d="M181.736,252.116c0,2.082,1.688,3.769,3.769,3.769c2.082,0,3.769-1.688,3.769-3.769v-4.238
					h-7.538V252.116z"/>
				<g>
					<path style="fill:#F9C388;" d="M265.415,252.813c-1.138-1.986-3.67-2.675-5.662-1.539c-0.156,0.089-15.74,8.856-34.247,7.971
						c-9.181-0.441-16.772-3.241-21.947-5.828v9.159c5.655,2.394,12.973,4.547,21.548,4.96c1.044,0.05,2.074,0.073,3.096,0.073
						c19.553,0,35.001-8.744,35.682-9.136C265.87,257.332,266.554,254.8,265.415,252.813z"/>
				</g>
				<g>
					<path style="fill:#1D5073;" d="M255.263,253.428c-5.951,2.561-17.175,6.418-29.757,5.817
						c-9.181-0.441-18.231-4.005-23.406-6.592l1.459,9.923c5.655,2.394,12.973,4.547,21.548,4.96
						c1.044,0.05,2.074,0.073,3.096,0.073c12.902,0,24.013-3.806,30.277-6.509C257.408,258.543,256.336,255.985,255.263,253.428z"/>
				</g>
				<path style="opacity:0.19;" d="M202.905,258.842v50.987h-2.694v7.969c-6.889-1.267-12.111-7.3-12.111-14.556l1.174-51.127
					l10.124,3.111C201.335,255.227,202.905,256.846,202.905,258.842z"/>
				<path style="fill:#1D5073;" d="M189.274,252.292h11.298c1.937,0,3.507,1.619,3.507,3.615v59.205
					c-8.176,0-14.805-6.628-14.805-14.805V252.292z"/>
				<path style="opacity:0.19;" d="M168.142,258.842v50.987l3.258-0.073l0.096,7.905c6.889-1.267,11.451-7.163,11.451-14.418
					l-1.174-51.127l-10.124,3.111C169.712,255.227,168.142,256.846,168.142,258.842z"/>
				<path style="fill:#1D5073;" d="M181.773,252.292h-11.298c-1.937,0-3.507,1.619-3.507,3.615v59.205
					c8.176,0,14.805-6.628,14.805-14.805V252.292z"/>
				<path style="fill:#194664;" d="M202.22,304.038h0.988c1.06,0,1.919-0.859,1.919-1.919V291.73h-10.212v5.002
					C194.915,300.767,198.186,304.038,202.22,304.038z"/>
				<polygon style="fill:#3C698C;" points="181.773,252.292 175.082,252.333 175.082,263.24 178.427,263.24 176.396,267.21 
					181.773,282.427 				"/>
				<polygon style="fill:#3C698C;" points="189.274,252.292 195.965,252.333 195.965,263.24 192.62,263.24 194.651,267.21 
					189.274,282.427 				"/>
				<path style="fill:#194664;" d="M168.072,304.038h0.988c4.035,0,7.305-3.271,7.305-7.305v-5.002h-10.212v10.389
					C166.153,303.178,167.012,304.038,168.072,304.038z"/>
				<g>
					<path id="XMLID_2769_" style="fill:#FFFFFF;" d="M200.177,215.364c0,5.842-6.595,10.577-14.73,10.577
						s-14.73-4.736-14.73-10.577c0-5.842,6.595-8.378,14.73-8.378S200.177,209.522,200.177,215.364z"/>
					<path id="XMLID_2768_" style="fill:#DD9F6B;" d="M176.291,233.185c0,2.297-1.863,4.16-4.16,4.16s-4.16-1.863-4.16-4.16
						c0-2.298,1.863-4.16,4.16-4.16S176.291,230.888,176.291,233.185z"/>
					<path id="XMLID_2767_" style="fill:#DD9F6B;" d="M202.414,233.185c0,2.297-1.863,4.16-4.16,4.16s-4.16-1.863-4.16-4.16
						c0-2.298,1.862-4.16,4.16-4.16S202.414,230.888,202.414,233.185z"/>
					<path id="XMLID_2766_" style="fill:#F2B47C;" d="M186.642,249.617h-2.713c-6.995,0-12.667-5.671-12.667-12.666v-20.196h28.046
						v20.196C199.308,243.946,193.637,249.617,186.642,249.617z"/>
					<path id="XMLID_2765_" style="fill:#654932;" d="M180.721,238.195c-0.479,0.002-0.768,0.527-0.521,0.937
						c1.04,1.729,2.938,2.882,5.101,2.871c2.164-0.011,4.05-1.182,5.073-2.921c0.243-0.413-0.052-0.934-0.53-0.932L180.721,238.195z
						"/>
					<path id="XMLID_2764_" style="fill:#654932;" d="M179.81,231.463c0,0.583-0.472,1.055-1.055,1.055
						c-0.582,0-1.055-0.472-1.055-1.055c0-0.582,0.472-1.054,1.055-1.054C179.338,230.409,179.81,230.881,179.81,231.463z"/>
					<path id="XMLID_2763_" style="fill:#654932;" d="M190.761,231.463c0,0.583,0.472,1.055,1.055,1.055
						c0.582,0,1.055-0.472,1.055-1.055c0-0.582-0.472-1.054-1.055-1.054C191.233,230.409,190.761,230.881,190.761,231.463z"/>
					<path id="XMLID_2762_" style="fill:#FFFFFF;" d="M171.559,229.025h-0.322c-0.829,0-1.501-0.672-1.501-1.501v-10.276
						c0-1.658,1.344-3.002,3.002-3.002h0.321v13.277C173.059,228.353,172.387,229.025,171.559,229.025z"/>
					<path id="XMLID_2761_" style="fill:#FFFFFF;" d="M199.469,229.025h-0.322c-0.829,0-1.501-0.672-1.501-1.501v-12.61h0.322
						c1.658,0,3.002,1.344,3.002,3.002v9.608C200.97,228.353,200.298,229.025,199.469,229.025z"/>
					<path id="XMLID_2760_" style="fill:#FFFFFF;" d="M191.815,238.845h-13.06v-0.439c0-2.265,1.836-4.101,4.101-4.101h4.857
						c2.265,0,4.101,1.836,4.101,4.101V238.845z"/>
				</g>
				<path style="fill:none;stroke:#50555A;stroke-width:0.8399;stroke-miterlimit:10;" d="M182.85,235.053h-8.19
					c-0.691,0-1.252-0.56-1.252-1.252v-2.567c0-0.691,0.56-1.252,1.252-1.252h8.19c0.691,0,1.252,0.56,1.252,1.252v2.567
					C184.102,234.493,183.542,235.053,182.85,235.053z"/>
				<path style="fill:none;stroke:#50555A;stroke-width:0.8399;stroke-miterlimit:10;" d="M195.91,235.053h-8.19
					c-0.691,0-1.252-0.56-1.252-1.252v-2.567c0-0.691,0.56-1.252,1.252-1.252h8.19c0.691,0,1.252,0.56,1.252,1.252v2.567
					C197.162,234.493,196.602,235.053,195.91,235.053z"/>
				
					<line style="fill:none;stroke:#50555A;stroke-width:0.8399;stroke-miterlimit:10;" x1="184.102" y1="231.853" x2="186.469" y2="231.853"/>
				
					<rect x="160.695" y="284.538" transform="matrix(0.8883 0.4592 -0.4592 0.8883 156.3611 -45.1218)" style="fill:#87AFB9;" width="20.517" height="28.777"/>
				
					<rect x="162.215" y="287.909" transform="matrix(0.8883 0.4592 -0.4592 0.8883 158.0784 -45.4433)" style="fill:#FFFFFF;" width="20.517" height="28.777"/>
				<g>
					<path style="fill:#1D5073;" d="M174.374,305.987c-0.065,0-0.13-0.001-0.197-0.004c-12.666-0.538-20.645-4.509-23.714-11.802
						c-6.428-15.273,13.262-37.851,15.528-40.376c1.681-1.872,4.562-2.029,6.437-0.347c1.873,1.682,2.028,4.564,0.346,6.437
						c-7.065,7.888-17.087,23.21-13.907,30.752c1.972,4.678,9.625,5.967,15.698,6.226c2.515,0.106,4.468,2.233,4.36,4.748
						C178.82,304.071,176.802,305.987,174.374,305.987z"/>
				</g>
				<g>
					<path style="fill:#F2B47C;" d="M174.565,296.874c-1.543-0.066-3.187-0.199-4.814-0.436v9.193
						c1.406,0.168,2.88,0.286,4.426,0.352c0.067,0.003,0.132,0.004,0.197,0.004c2.429,0,4.447-1.916,4.551-4.364
						C179.032,299.107,177.08,296.98,174.565,296.874z"/>
				</g>
				
					<line style="fill:none;stroke:#4191E6;stroke-width:3;stroke-linecap:round;stroke-miterlimit:10;" x1="268.732" y1="233.238" x2="259.604" y2="260.49"/>
			</g>
			<g>
				<g>
					<path style="fill:#738ADE;" d="M382.891,402.2c-0.134,1.271-1.206,2.235-2.483,2.235h-17.539c-1.278,0-2.349-0.964-2.483-2.235
						l-3.481-32.973h29.468L382.891,402.2z"/>
				</g>
				<g style="opacity:0.18;">
					<path d="M381.089,369.227c0.234,1.337,0.345,27.523-21.247,27.825l0.543,5.147c0.134,1.271,1.206,2.235,2.483,2.235h17.539
						c1.278,0,2.349-0.964,2.483-2.235l3.481-32.973H381.089z"/>
				</g>
				<g>
					<path style="fill:#899FF0;" d="M364.783,396.485c-0.81,0-1.503-0.615-1.584-1.438l-2.257-23.009
						c-0.086-0.876,0.554-1.655,1.43-1.741c0.878-0.084,1.655,0.555,1.741,1.43l2.257,23.009c0.086,0.876-0.554,1.655-1.43,1.741
						C364.888,396.482,364.834,396.485,364.783,396.485z"/>
				</g>
				<g style="opacity:0.29;">
					<polygon points="385.467,377.797 386.372,369.227 356.904,369.227 357.809,377.797 					"/>
				</g>
				<g>
					<path style="fill:#899FF0;" d="M387.286,373.652H355.99c-1.104,0-1.999-0.895-1.999-1.999v-0.428
						c0-1.104,0.895-1.999,1.999-1.999h31.296c1.104,0,1.998,0.895,1.998,1.999v0.428
						C389.285,372.757,388.39,373.652,387.286,373.652z"/>
				</g>
				<g>
					<path style="fill:#A5B5F2;" d="M372.909,371.44c0-1.222-0.99-2.212-2.212-2.212h-8.905c-1.222,0-2.213,0.991-2.213,2.212l0,0
						c0,1.222,0.991,2.212,2.213,2.212h8.905C371.919,373.652,372.909,372.662,372.909,371.44L372.909,371.44z"/>
				</g>
			</g>
			<g>
				<path style="fill:#F2B47C;" d="M129.329,301.608h-7.343v-25.893h17.99v15.247C139.975,296.842,135.209,301.608,129.329,301.608z
					"/>
				<path id="XMLID_2620_" style="fill:#E25F3F;" d="M157.106,402.977h23.787v-1.859c0-2.088-1.693-3.781-3.781-3.781H159.04
					c-1.068,0-1.934,0.866-1.934,1.934V402.977z"/>
				<rect id="XMLID_2622_" x="155.961" y="402.977" style="fill:#A2482A;" width="26.076" height="1.704"/>
				<path id="XMLID_16_" style="fill:#E25F3F;" d="M193.278,393.102l17.296-16.329l-1.276-1.352
					c-1.434-1.518-3.827-1.587-5.345-0.154l-13.141,12.406c-0.777,0.733-0.812,1.957-0.079,2.734L193.278,393.102z"/>
				
					<rect id="XMLID_1_" x="189.473" y="384.705" transform="matrix(0.7271 -0.6865 0.6865 0.7271 -209.424 244.2262)" style="fill:#A2482A;" width="26.076" height="1.704"/>
				<g>
					<path style="fill:#C9DAFF;" d="M274.125,333.831h-42.588c-2.416,0-4.177-2.287-3.56-4.623l6.68-25.272
						c0.427-1.616,1.889-2.741,3.56-2.741h42.588c2.416,0,4.177,2.287,3.56,4.623l-6.68,25.272
						C277.257,332.705,275.796,333.831,274.125,333.831z"/>
					<path style="fill:#FFFFFF;" d="M272.165,332.573h-37.939c-2.152,0-3.721-2.038-3.171-4.118l5.951-22.513
						c0.38-1.439,1.682-2.442,3.171-2.442h38.995c1.619,0,2.799,1.533,2.385,3.098l-6.22,23.534
						C274.956,331.57,273.654,332.573,272.165,332.573z"/>
					<path style="fill:#A2B9EC;" d="M274.243,333.831h-56.358c-1.959,0-3.547-1.588-3.547-3.547v-0.38h63.452v0.38
						C277.79,332.242,276.202,333.831,274.243,333.831z"/>
					<path style="fill:#738ADE;" d="M251.22,329.904L251.22,329.904c0,2.169,1.758,3.927,3.927,3.927h19.24
						c2.169,0,3.611-1.758,3.611-3.927H251.22z"/>
					<path style="fill:#5D75D8;" d="M265.75,331.867h-9.717c-0.979,0-1.773-0.794-1.773-1.773v-0.19h13.264v0.19
						C267.523,331.073,266.729,331.867,265.75,331.867z"/>
					<path style="fill:#5D75D8;" d="M273.898,332.155h-3.255c-0.245,0-0.443-0.198-0.443-0.443v-0.095
						c0-0.245,0.199-0.443,0.443-0.443h3.255c0.245,0,0.443,0.199,0.443,0.443v0.095
						C274.342,331.956,274.143,332.155,273.898,332.155z"/>
				</g>
				<polygon style="fill:#738ADE;" points="215.812,404.435 208.623,341.335 202.34,341.335 212.324,404.435 				"/>
				<polygon style="fill:#5D75D8;" points="209.204,346.433 208.623,341.335 202.34,341.335 203.147,346.433 				"/>
				<polygon style="fill:#C9DAFF;" points="154.871,341.335 299.897,341.335 303.562,333.831 151.206,333.831 				"/>
				<polygon style="fill:#A2B9EC;" points="242.157,333.834 304.097,333.834 300.432,341.338 242.157,341.338 				"/>
				<polygon style="fill:#738ADE;" points="303.247,404.435 296.058,341.335 289.775,341.335 299.759,404.435 				"/>
				<polygon style="fill:#5D75D8;" points="290.657,346.905 289.775,341.335 296.058,341.335 296.693,346.905 				"/>
				<polygon style="fill:#A2B9EC;" points="242.618,404.435 252.602,341.335 246.319,341.335 239.131,404.435 				"/>
				<polygon style="fill:#8CA1E4;" points="245.685,346.905 246.319,341.335 252.602,341.335 251.721,346.905 				"/>
				<polygon style="fill:#A2B9EC;" points="155.183,404.435 165.167,341.335 158.884,341.335 151.696,404.435 				"/>
				<polygon style="fill:#8CA1E4;" points="164.36,346.433 165.167,341.335 158.884,341.335 158.304,346.433 				"/>
				<polygon style="fill:#C9DAFF;" points="251.896,313.542 241.529,313.542 242.741,302.679 252.585,302.155 				"/>
				<polygon style="fill:#BE5AB9;" points="249.967,312.522 239.6,312.522 242.218,302.155 252.585,302.155 				"/>
				<polygon style="fill:#BE1EC8;" points="252.049,304.276 252.585,302.155 242.218,302.155 241.682,304.276 				"/>
				
					<polyline style="fill:none;stroke:#F2B170;stroke-width:9;stroke-linecap:round;stroke-linejoin:round;stroke-miterlimit:10;" points="
					126.078,352.746 164.531,352.746 163.459,398.18 				"/>
				
					<polyline style="fill:none;stroke:#F9C388;stroke-width:9;stroke-linecap:round;stroke-linejoin:round;stroke-miterlimit:10;" points="
					126.078,352.746 164.531,352.746 194.583,385.063 				"/>
				<path style="fill:#FFFFFF;" d="M145.304,348.501h-23.41v-43.654h9.804c4.655,0,8.582,3.467,9.16,8.086L145.304,348.501z"/>
				<g>
					<path style="fill:#2D2E30;" d="M161.936,346.433h-35.858c-2.26,0-4.093,2.329-4.093,5.203c0,2.873,1.832,5.203,4.093,5.203
						h35.858V346.433z"/>
				</g>
				
					<polyline style="fill:none;stroke:#F9C388;stroke-width:9;stroke-linecap:round;stroke-linejoin:round;stroke-miterlimit:10;" points="
					131.695,310.531 146.446,329.904 173.441,329.904 				"/>
				<path style="fill:#8E552E;" d="M136.505,313.942H111.46V282.45c0-6.247,5.064-11.311,11.311-11.311h2.423
					c6.247,0,11.311,5.064,11.311,11.311V313.942z"/>
				<path style="fill:#8E552E;" d="M139.263,280.292h-15.281v-9.154h15.281c2.283,0,4.134,1.851,4.134,4.134v0.885
					C143.397,278.441,141.546,280.292,139.263,280.292z"/>
				<g>
					<rect x="113.852" y="376.412" style="fill:#4E62CC;" width="5.713" height="17.938"/>
					<polygon style="fill:#4F56A4;" points="119.565,383.945 113.852,381.477 113.852,376.412 119.565,376.412 					"/>
					<path style="fill:#5D75D8;" d="M127.561,377.304h-21.177c-2.18,0-3.947-1.767-3.947-3.947v-0.423h29.07v0.423
						C131.508,375.537,129.741,377.304,127.561,377.304z"/>
					<path style="fill:#4E62CC;" d="M131.238,374.435c0.172-0.469,0.27-0.973,0.27-1.501h-29.07c0,0.528,0.099,1.032,0.27,1.501
						H131.238z"/>
					<path style="fill:#4E62CC;" d="M146.46,356.616c-3.942,0-7.137-3.195-7.137-7.137v-26.141
						c0-13.682-11.092-24.774-24.774-24.774l0,0l0,0h-9.303v1.813c-9.071,3.679-15.472,12.57-15.472,22.962v33.278h-6.421v0.682
						c0,4.214,2.678,7.793,6.421,9.155v0.596h3.331h36.466h21.111c5.386,0,9.752-4.366,9.752-9.752v-0.682H146.46z"/>
					<path style="fill:#738ADE;" d="M130.228,347.975v-24.637c0-13.682-11.092-24.774-24.774-24.774h0
						c-13.682,0-24.774,11.092-24.774,24.774v33.959c0,5.164,4.017,9.38,9.096,9.719v0.033h0.656h39.797h20.455
						c3.609,0,6.753-1.966,8.439-4.881h-14.701C136.582,362.169,130.228,355.814,130.228,347.975z"/>
					<rect x="89.775" y="367.049" style="fill:#A9C0F1;" width="59.58" height="6.153"/>
					<rect x="89.775" y="367.049" style="fill:#A2B9EC;" width="59.58" height="2.197"/>
					<rect x="126.559" y="367.049" style="fill:#738ADE;" width="22.796" height="6.153"/>
					<rect x="126.559" y="367.049" style="fill:#5D75D8;" width="22.796" height="2.197"/>
					<path style="fill:#4F56A4;" d="M100.382,400.853c0-1.917-1.554-3.47-3.47-3.47c-1.917,0-3.47,1.554-3.47,3.47
						c0,1.917,1.554,3.47,3.47,3.47C98.828,404.323,100.382,402.77,100.382,400.853z"/>
					<path style="fill:#4F56A4;" d="M139.975,400.853c0-1.917-1.554-3.47-3.47-3.47c-1.917,0-3.47,1.554-3.47,3.47
						c0,1.917,1.554,3.47,3.47,3.47C138.421,404.323,139.975,402.77,139.975,400.853z"/>
					<rect x="94.091" y="394.351" style="fill:#738ADE;" width="45.389" height="3.478"/>
					<path style="fill:#8CA1E4;" d="M138.091,393.102H95.48c-0.767,0-1.389,0.622-1.389,1.389v0.149h45.389v-0.149
						C139.48,393.724,138.858,393.102,138.091,393.102z"/>
					<path style="fill:#4F56A4;" d="M116.965,404.323h-0.345c-0.889,0-1.609-0.72-1.609-1.609v-3.723
						c0-0.889,0.72-1.609,1.609-1.609h0.345c0.889,0,1.609,0.72,1.609,1.609v3.723C118.573,403.603,117.853,404.323,116.965,404.323
						z"/>
				</g>
			</g>
			<rect x="75.504" y="404.435" style="fill:#B6C9F7;" width="329.635" height="5.051"/>
			<g>
				
					<rect x="316.715" y="376.458" transform="matrix(-1.836970e-16 1 -1 -1.836970e-16 721.15 74.9135)" style="fill:#5D9BE3;" width="12.806" height="43.148"/>
				
					<rect x="321.388" y="381.13" transform="matrix(-1.836970e-16 1 -1 -1.836970e-16 725.8223 79.5859)" style="fill:#4E8ACF;" width="3.461" height="43.148"/>
				
					<rect x="316.715" y="363.652" transform="matrix(-1.836970e-16 1 -1 -1.836970e-16 708.3441 62.1077)" style="fill:#AFD5FF;" width="12.806" height="43.148"/>
				
					<rect x="321.388" y="368.325" transform="matrix(-1.836970e-16 1 -1 -1.836970e-16 713.0165 66.7801)" style="fill:#73ADF0;" width="3.461" height="43.148"/>
				<path style="fill:#73ADF0;" d="M318.215,400.08v-4.328c0-0.876,0.71-1.586,1.586-1.586h15.807c0.876,0,1.586,0.71,1.586,1.586
					v4.328c0,0.876-0.71,1.586-1.586,1.586H319.8C318.925,401.666,318.215,400.956,318.215,400.08z"/>
				<path style="fill:#D2F0FF;" d="M318.215,387.39v-4.328c0-0.876,0.71-1.586,1.586-1.586h15.807c0.876,0,1.586,0.71,1.586,1.586
					v4.328c0,0.876-0.71,1.586-1.586,1.586H319.8C318.925,388.975,318.215,388.265,318.215,387.39z"/>
				<path style="fill:#73ADF0;" d="M309.793,388.225c-1.657,0-3-1.343-3-3c0-1.657,1.343-3,3-3c1.657,0,3,1.343,3,3
					C312.793,386.883,311.45,388.225,309.793,388.225z"/>
				
					<rect x="310.574" y="350.846" transform="matrix(-1.836970e-16 1 -1 -1.836970e-16 689.3965 55.4436)" style="fill:#73ADF0;" width="12.806" height="43.148"/>
				
					<rect x="315.246" y="355.519" transform="matrix(-1.836970e-16 1 -1 -1.836970e-16 694.0689 60.116)" style="fill:#5D9BE3;" width="3.461" height="43.148"/>
				<path style="fill:#AFD5FF;" d="M312.073,374.584v-4.328c0-0.876,0.71-1.586,1.586-1.586h15.807c0.876,0,1.586,0.71,1.586,1.586
					v4.328c0,0.876-0.71,1.586-1.586,1.586h-15.807C312.783,376.169,312.073,375.46,312.073,374.584z"/>
				<path style="fill:#5D9BE3;" d="M303.651,375.42c-1.657,0-2.999-1.343-2.999-3c0-1.657,1.343-3,2.999-3s3,1.343,3,3
					C306.651,374.077,305.308,375.42,303.651,375.42z"/>
				<path style="fill:#4E8ACF;" d="M309.793,401.031c-1.657,0-3-1.343-3-3c0-1.657,1.343-3,3-3c1.657,0,3,1.343,3,3
					C312.793,399.688,311.45,401.031,309.793,401.031z"/>
			</g>
		</g>
		<g>
			<path style="fill:#73ADF0;" d="M338.057,142.611h22.518c5.254,0,8.625-5.586,6.176-10.235l-3.587-6.809l3.587-6.809
				c2.449-4.649-0.922-10.235-6.176-10.235h-22.518V142.611z"/>
			<polygon style="fill:#4191E6;" points="357.893,132.635 338.057,142.611 338.057,132.635 			"/>
			<path style="fill:#73ADF0;" d="M161.943,142.611h-22.519c-5.254,0-8.625-5.586-6.176-10.235l3.587-6.809l-3.587-6.809
				c-2.449-4.649,0.921-10.235,6.176-10.235h22.519V142.611z"/>
			<rect x="142.107" y="98.548" style="fill:#73ADF0;" width="215.787" height="34.087"/>
			
				<text transform="matrix(1 0 0 1 164.9395 123.2628)" style="fill:#FFFFFF; font-family:'Dosis-ExtraBold'; font-size:19.0877px;">PLANNING SCHEDULE</text>
			<polygon style="fill:#4191E6;" points="142.107,132.635 161.943,142.611 161.943,132.635 			"/>
		</g>
	</g>
</g>
<g id="DESIGNED_BY_FREEPIK">
	<g>
		<g id="XMLID_319_">
			<g id="XMLID_338_">
				<path id="XMLID_346_" style="fill:#A5B7C6;" d="M260.104,475.208c-0.432,0.443-0.803,0.931-1.108,1.453l-0.465-0.241
					c-0.067-0.298-0.349-0.502-0.659-0.466c-0.331,0.039-0.568,0.339-0.529,0.67c0.039,0.331,0.339,0.568,0.67,0.529
					c0.066-0.008,0.127-0.026,0.184-0.052l0.451,0.234c-0.251,0.554-0.433,1.139-0.539,1.744l0.746,0.132
					c0.23-1.306,0.85-2.507,1.792-3.473L260.104,475.208z"/>
				<path id="XMLID_345_" style="fill:#A5B7C6;" d="M265.592,472.906c-0.171,0-0.341,0.006-0.51,0.017l-0.074-0.626
					c0.188-0.149,0.296-0.389,0.266-0.645c-0.046-0.393-0.402-0.674-0.795-0.628c-0.393,0.046-0.674,0.402-0.628,0.795
					c0.03,0.254,0.189,0.461,0.404,0.564l0.074,0.624c-0.714,0.116-1.403,0.332-2.06,0.646l0.327,0.684
					c0.934-0.447,1.942-0.673,2.995-0.673c0.496,0,0.993,0.053,1.475,0.158l0.161-0.741
					C266.692,472.964,266.142,472.906,265.592,472.906z"/>
				<path id="XMLID_344_" style="fill:#A5B7C6;" d="M272.194,475.453c0.331-0.04,0.566-0.341,0.526-0.672
					c-0.04-0.331-0.341-0.566-0.672-0.526c-0.309,0.038-0.535,0.304-0.53,0.609l-0.416,0.363c-0.418-0.43-0.889-0.813-1.408-1.139
					l-0.404,0.641c1.134,0.715,2.021,1.726,2.563,2.925l0.69-0.313c-0.251-0.554-0.568-1.072-0.942-1.545l0.402-0.351
					C272.065,475.458,272.129,475.461,272.194,475.453z"/>
				<path id="XMLID_343_" style="fill:#A5B7C6;" d="M265.044,483.114c-0.386,0.023-0.775,0.035-1.157,0.035
					c-0.88,0-1.733-0.061-2.478-0.179c-0.39-0.062-0.846-0.155-1.27-0.292c1.046,1.861,3.069,3.125,5.388,3.125
					c2.855,0,5.262-1.916,5.95-4.504c-0.682,0.449-1.505,0.825-2.459,1.123C267.839,482.789,266.463,483.029,265.044,483.114z"/>
				<path id="XMLID_339_" style="fill:#A5B7C6;" d="M265.592,474.422c-3.352,0-6.08,2.666-6.08,5.944
					c0,0.426,0.046,0.849,0.137,1.261c0.673,0.483,2.706,0.89,5.348,0.731c2.879-0.173,5.297-0.957,6.672-2.159
					c-0.006-0.195-0.021-0.39-0.045-0.582C271.244,476.655,268.65,474.422,265.592,474.422z M263.432,480.937
					c-1.02,0-1.85-0.83-1.85-1.85c0-1.02,0.83-1.85,1.85-1.85c1.02,0,1.85,0.83,1.85,1.85
					C265.282,480.107,264.452,480.937,263.432,480.937z M268.17,480.028c-0.75,0-1.36-0.61-1.36-1.36c0-0.75,0.61-1.361,1.36-1.361
					c0.75,0,1.361,0.61,1.361,1.361C269.53,479.418,268.92,480.028,268.17,480.028z"/>
			</g>
			<path id="XMLID_336_" style="fill:#A5B7C6;" d="M281.595,476.289c-0.295-0.116-0.805-0.309-1.382-0.237
				c-0.551,0.068-0.844,0.34-0.844,1.007v0.866h2.228v1.717h-2.228v5.455h-1.932v-5.455h-1.34v-1.717h1.34v-0.888
				c0-1.68,0.896-2.783,2.568-2.783c0.643,0,1.157,0.122,1.59,0.308L281.595,476.289z"/>
			<path id="XMLID_14_" style="fill:#A5B7C6;" d="M286.298,479.621c-0.177-0.03-0.358-0.046-0.526-0.046
				c-0.895,0-1.51,0.548-1.51,1.613v3.908h-1.932v-7.172h1.873v0.785c0.451-0.674,1.14-0.977,2.021-0.977
				c0.414,0,0.848,0.128,1.094,0.337L286.298,479.621z"/>
			<path id="XMLID_331_" style="fill:#A5B7C6;" d="M293.965,481.499c0,0.222-0.015,0.489-0.037,0.651h-5.085
				c0.207,1.036,0.933,1.488,1.843,1.488c0.622,0,1.295-0.252,1.813-0.688l1.133,1.243c-0.814,0.748-1.85,1.088-3.057,1.088
				c-2.198,0-3.723-1.495-3.723-3.753c0-2.257,1.48-3.797,3.627-3.797C292.544,477.732,293.958,479.264,293.965,481.499z
				 M288.851,480.833h3.175c-0.177-0.918-0.733-1.436-1.562-1.436C289.554,479.397,289.021,479.945,288.851,480.833z"/>
			<path id="XMLID_328_" style="fill:#A5B7C6;" d="M301.618,481.499c0,0.222-0.015,0.489-0.037,0.651h-5.085
				c0.207,1.036,0.932,1.488,1.843,1.488c0.622,0,1.295-0.252,1.814-0.688l1.132,1.243c-0.814,0.748-1.85,1.088-3.057,1.088
				c-2.198,0-3.723-1.495-3.723-3.753c0-2.257,1.48-3.797,3.627-3.797C300.197,477.732,301.611,479.264,301.618,481.499z
				 M296.504,480.833h3.175c-0.178-0.918-0.733-1.436-1.562-1.436C297.207,479.397,296.674,479.945,296.504,480.833z"/>
			<path id="XMLID_325_" style="fill:#A5B7C6;" d="M309.964,481.507c0,2.154-1.495,3.775-3.471,3.775
				c-0.962,0-1.643-0.378-2.109-0.933v3.708h-1.924v-10.133h1.887v0.792c0.466-0.585,1.155-0.984,2.139-0.984
				C308.469,477.732,309.964,479.353,309.964,481.507z M304.287,481.507c0,1.132,0.747,1.976,1.843,1.976
				c1.14,0,1.85-0.881,1.85-1.976c0-1.095-0.711-1.976-1.85-1.976C305.035,479.53,304.287,480.374,304.287,481.507z"/>
			<path id="XMLID_322_" style="fill:#A5B7C6;" d="M313.067,475.578c0,0.696-0.54,1.229-1.236,1.229
				c-0.696,0-1.229-0.533-1.229-1.229c0-0.696,0.533-1.243,1.229-1.243C312.527,474.335,313.067,474.882,313.067,475.578z
				 M312.809,485.096h-1.932v-7.172h1.932V485.096z"/>
			<path id="XMLID_12_" style="fill:#A5B7C6;" d="M316.032,480.478l2.702-2.554h2.368l-3.479,3.375l3.501,3.797h-2.376l-2.716-2.901
				v2.901H314.1v-10.658h1.932V480.478z"/>
		</g>
		<g>
			<path style="fill:#A5B7C6;" d="M184.412,485.031v-1.055c-0.527,0.718-1.391,1.23-2.387,1.23c-1.846,0-3.149-1.406-3.149-3.706
				c0-2.256,1.289-3.721,3.149-3.721c0.952,0,1.816,0.469,2.387,1.245v-3.765h1.099v9.77H184.412z M184.412,483.112v-3.208
				c-0.395-0.615-1.245-1.143-2.124-1.143c-1.421,0-2.27,1.172-2.27,2.739c0,1.567,0.85,2.724,2.27,2.724
				C183.168,484.225,184.017,483.728,184.412,483.112z"/>
			<path style="fill:#A5B7C6;" d="M186.932,481.487c0-2.051,1.465-3.706,3.486-3.706c2.139,0,3.398,1.67,3.398,3.794v0.279h-5.727
				c0.088,1.333,1.025,2.446,2.549,2.446c0.805,0,1.626-0.322,2.182-0.893l0.527,0.718c-0.703,0.703-1.655,1.084-2.812,1.084
				C188.44,485.207,186.932,483.698,186.932,481.487z M190.403,478.689c-1.509,0-2.256,1.274-2.314,2.358h4.643
				C192.718,479.992,192.015,478.689,190.403,478.689z"/>
			<path style="fill:#A5B7C6;" d="M194.607,484.094l0.571-0.791c0.469,0.542,1.362,1.011,2.329,1.011c1.084,0,1.67-0.513,1.67-1.216
				c0-1.714-4.38-0.659-4.38-3.281c0-1.098,0.952-2.036,2.636-2.036c1.201,0,2.051,0.454,2.622,1.026l-0.513,0.762
				c-0.424-0.513-1.201-0.894-2.109-0.894c-0.967,0-1.567,0.483-1.567,1.113c0,1.553,4.38,0.527,4.38,3.281
				c0,1.187-0.952,2.139-2.783,2.139C196.306,485.207,195.325,484.855,194.607,484.094z"/>
			<path style="fill:#A5B7C6;" d="M201.477,476.213c0-0.41,0.337-0.747,0.732-0.747c0.41,0,0.747,0.337,0.747,0.747
				c0,0.41-0.337,0.732-0.747,0.732C201.814,476.945,201.477,476.623,201.477,476.213z M201.667,485.031v-7.075h1.099v7.075H201.667
				z"/>
			<path style="fill:#A5B7C6;" d="M204.582,486.848l0.556-0.82c0.586,0.703,1.289,0.967,2.3,0.967c1.172,0,2.27-0.571,2.27-2.124
				v-1.011c-0.513,0.718-1.377,1.26-2.373,1.26c-1.845,0-3.149-1.377-3.149-3.662c0-2.27,1.289-3.677,3.149-3.677
				c0.952,0,1.802,0.469,2.373,1.245v-1.069h1.098v6.87c0,2.344-1.641,3.076-3.369,3.076
				C206.237,487.902,205.417,487.668,204.582,486.848z M209.709,482.995v-3.091c-0.381-0.615-1.23-1.143-2.109-1.143
				c-1.421,0-2.27,1.128-2.27,2.695c0,1.553,0.849,2.695,2.27,2.695C208.478,484.152,209.328,483.611,209.709,482.995z"/>
			<path style="fill:#A5B7C6;" d="M217.413,485.031v-4.629c0-1.245-0.63-1.641-1.582-1.641c-0.865,0-1.685,0.527-2.095,1.099v5.17
				h-1.099v-7.075h1.099v1.025c0.498-0.586,1.465-1.201,2.519-1.201c1.48,0,2.256,0.747,2.256,2.285v4.966H217.413z"/>
			<path style="fill:#A5B7C6;" d="M219.932,481.487c0-2.051,1.465-3.706,3.486-3.706c2.139,0,3.398,1.67,3.398,3.794v0.279h-5.727
				c0.088,1.333,1.025,2.446,2.549,2.446c0.806,0,1.626-0.322,2.183-0.893l0.527,0.718c-0.703,0.703-1.655,1.084-2.812,1.084
				C221.441,485.207,219.932,483.698,219.932,481.487z M223.404,478.689c-1.509,0-2.256,1.274-2.314,2.358h4.643
				C225.718,479.992,225.015,478.689,223.404,478.689z"/>
			<path style="fill:#A5B7C6;" d="M233.35,485.031v-1.055c-0.527,0.718-1.392,1.23-2.388,1.23c-1.846,0-3.149-1.406-3.149-3.706
				c0-2.256,1.289-3.721,3.149-3.721c0.952,0,1.817,0.469,2.388,1.245v-3.765h1.098v9.77H233.35z M233.35,483.112v-3.208
				c-0.396-0.615-1.245-1.143-2.124-1.143c-1.421,0-2.27,1.172-2.27,2.739c0,1.567,0.849,2.724,2.27,2.724
				C232.105,484.225,232.954,483.728,233.35,483.112z"/>
			<path style="fill:#A5B7C6;" d="M239.692,485.031v-9.77h1.098v3.765c0.572-0.776,1.421-1.245,2.388-1.245
				c1.845,0,3.149,1.465,3.149,3.721c0,2.299-1.304,3.706-3.149,3.706c-0.996,0-1.86-0.513-2.388-1.23v1.055H239.692z
				 M242.9,484.225c1.436,0,2.285-1.157,2.285-2.724c0-1.568-0.85-2.739-2.285-2.739c-0.864,0-1.728,0.527-2.109,1.143v3.208
				C241.171,483.728,242.036,484.225,242.9,484.225z"/>
			<path style="fill:#A5B7C6;" d="M247.528,486.804c0.161,0.073,0.425,0.117,0.601,0.117c0.483,0,0.805-0.161,1.055-0.747
				l0.469-1.069l-2.959-7.148h1.187l2.358,5.801l2.344-5.801h1.201l-3.545,8.51c-0.425,1.025-1.143,1.421-2.08,1.435
				c-0.234,0-0.601-0.044-0.806-0.103L247.528,486.804z"/>
		</g>
	</g>
</g>
</svg>
